<?xml version="1.0" standalone="no"?>
<!DOCTYPE svg PUBLIC "-//W3C//DTD SVG 20010904//EN"
 "http://www.w3.org/TR/2001/REC-SVG-20010904/DTD/svg10.dtd">
<svg version="1.0" xmlns="http://www.w3.org/2000/svg"
 width="1000.000000pt" height="1000.000000pt" viewBox="0 0 1000.000000 1000.000000"
 preserveAspectRatio="xMidYMid meet">
<metadata>
Created by potrace 1.14, written by Peter Selinger 2001-2017
</metadata>
<g transform="translate(0.000000,1000.000000) scale(0.100000,-0.100000)"
fill="#000000" stroke="none">
<path d="M0 5000 l0 -5000 5000 0 5000 0 0 5000 0 5000 -5000 0 -5000 0 0
-5000z m5489 3345 c544 -60 1064 -264 1494 -588 65 -49 156 -126 202 -171 l84
-81 -378 -473 c-208 -261 -385 -481 -394 -489 -13 -14 -25 -8 -114 55 -209
149 -424 262 -632 331 -276 93 -592 120 -850 75 -337 -60 -522 -251 -509 -525
4 -76 9 -97 41 -162 60 -121 175 -215 394 -322 61 -30 412 -174 780 -321 694
-276 881 -361 1059 -480 136 -91 215 -157 331 -277 272 -283 417 -628 454
-1077 65 -803 -336 -1507 -1081 -1898 -581 -304 -1366 -391 -2129 -236 -439
90 -877 269 -1251 512 -174 113 -440 322 -440 346 0 12 875 1069 888 1074 4 1
50 -32 102 -73 323 -258 727 -459 1086 -539 166 -38 299 -50 469 -43 251 10
430 61 560 159 119 91 181 206 192 358 19 255 -129 426 -517 600 -52 23 -382
164 -734 312 -674 284 -728 309 -871 396 -632 384 -960 969 -932 1662 6 152
22 261 58 395 12 44 21 93 20 108 -3 52 82 286 130 357 9 14 47 72 84 130 48
75 97 135 174 210 105 103 302 250 336 250 9 0 60 27 113 61 244 154 552 271
877 333 271 52 605 63 904 31z"/>
</g>
</svg>
